<?xml version="1.0" encoding="UTF-8"?>
<svg width="153px" height="67px" viewBox="0 0 153 67" version="1.1" xmlns="http://www.w3.org/2000/svg" xmlns:xlink="http://www.w3.org/1999/xlink">
    <!-- Generator: Sketch 52.4 (67378) - http://www.bohemiancoding.com/sketch -->
    <title>kwick_logo_white</title>
    <desc>Created with Sketch.</desc>
    <defs>
        <filter x="-1.8%" y="-31.9%" width="103.5%" height="163.8%" filterUnits="objectBoundingBox" id="filter-1">
            <feOffset dx="0" dy="2" in="SourceAlpha" result="shadowOffsetOuter1"></feOffset>
            <feGaussianBlur stdDeviation="5.5" in="shadowOffsetOuter1" result="shadowBlurOuter1"></feGaussianBlur>
            <feColorMatrix values="0 0 0 0 0   0 0 0 0 0   0 0 0 0 0  0 0 0 0.0978543931 0" type="matrix" in="shadowBlurOuter1" result="shadowMatrixOuter1"></feColorMatrix>
            <feMerge>
                <feMergeNode in="shadowMatrixOuter1"></feMergeNode>
                <feMergeNode in="SourceGraphic"></feMergeNode>
            </feMerge>
        </filter>
    </defs>
    <g id="Symbols" stroke="none" stroke-width="1" fill="none" fill-rule="evenodd">
        <g id="Header" transform="translate(-171.000000, -9.000000)" fill="#00BF6F">
            <g id="Group-26" filter="url(#filter-1)">
                <g id="Group-19">
                    <g id="kwick_logo_white" transform="translate(180.000000, 18.000000)">
                        <path d="M23.0173414,37.9253163 L0.128929161,41.5351997 C0.0538878986,41.547077 0,41.6099082 0,41.6839041 C0,41.7586127 0.0538878986,41.8213251 0.128929161,41.8333212 L21.763266,45.2454467 C21.770711,45.2467532 21.7793378,45.2467532 21.7871374,45.2467532 C21.859697,45.2467532 21.9242206,45.194968 21.9374563,45.1220411 L23.1920043,38.1001509 C23.200513,38.0527603 23.1847957,38.0027566 23.1500521,37.9680747 C23.116254,37.9349369 23.0672113,37.9194964 23.0173414,37.9253163 Z M24.710674,28.4461209 L1.82568891,32.0549353 C1.7513567,32.0666939 1.69675975,32.1292876 1.69675975,32.2032835 C1.69675975,32.2781108 1.7513567,32.3408232 1.82568891,32.3528193 L23.4569532,35.7642322 C23.4647527,35.7655387 23.472316,35.7655387 23.4808246,35.7655387 C23.5537387,35.7655387 23.6182624,35.7141098 23.6309071,35.6408265 L24.885337,28.6209555 C24.8927821,28.572971 24.8781283,28.52368 24.8430303,28.4889981 C24.8085231,28.4547913 24.761253,28.4397071 24.710674,28.4461209 Z M52.0365656,38.6213291 C52.0028857,38.5813024 51.9502977,38.5634864 51.8947554,38.5685936 L34.3495174,41.3356602 C34.2744761,41.3477751 34.2202337,41.4103687 34.2202337,41.4844834 C34.2202337,41.5591919 34.2744761,41.6217856 34.3495174,41.6339005 L57.2516379,45.2450904 C57.2594375,45.2463969 57.2679461,45.2463969 57.2758638,45.2463969 C57.3297517,45.2463969 57.3808034,45.2182476 57.4081019,45.1706194 C57.4397729,45.1162212 57.4341005,45.0487578 57.3934482,45.0000607 L52.0365656,38.6213291 Z M49.6527352,36.1706751 C49.7073321,36.1706751 49.7577929,36.1415756 49.7856823,36.0945413 C49.8173532,36.039668 49.8109718,35.9718483 49.7703195,35.9238638 L44.7988063,30.0027666 C44.7642992,29.9620272 44.7131293,29.9427859 44.6571143,29.9493185 L28.3705605,32.5183896 C28.2958738,32.5302669 28.2412768,32.5930981 28.2412768,32.667094 C28.2412768,32.7410899 28.2958738,32.804515 28.3705605,32.8163923 L49.6288638,36.1685372 C49.6363088,36.1699625 49.6448174,36.1706751 49.6527352,36.1706751 Z M3.29945204,22.640709 L14.4722097,23.963846 L42.4159213,27.3382015 C42.4186393,27.3391517 42.4212392,27.3391517 42.425139,27.3391517 C42.4647276,27.3391517 42.5054981,27.3100522 42.5355146,27.2833282 C42.5687218,27.254585 42.5868026,27.1946044 42.5868026,27.1517271 C42.5868026,27.1164514 42.5743942,27.0824822 42.551941,27.0557581 L38.7151462,22.4871349 L42.551941,17.9187492 C42.5743942,17.8915501 42.587039,17.8207611 42.587039,17.7853665 C42.587039,17.742133 42.5687218,17.7007998 42.5355146,17.6719378 C42.5036073,17.6445012 42.4611824,17.6326238 42.4159213,17.6352368 L3.29945204,22.3417561 C3.22228362,22.3510204 3.16473229,22.4150394 3.16473229,22.4911732 C3.16473229,22.5679009 3.22299267,22.6320386 3.29945204,22.640709 Z M34.3495174,3.91119479 L51.8949917,6.67861768 C51.9025549,6.68004296 51.9110636,6.68004296 51.9186268,6.68004296 C51.9642424,6.68004296 52.0072582,6.66080165 52.0365656,6.62552592 L57.3934482,0.247269423 C57.4343368,0.198215962 57.4397729,0.130752606 57.4084564,0.0758792421 C57.3774945,0.0214809725 57.315098,-0.00797485903 57.2519924,0.00188334266 L34.3495174,3.61307327 C34.2744761,3.62542572 34.2205882,3.68813813 34.2205882,3.76249035 C34.2205882,3.83648625 34.2744761,3.89931744 34.3495174,3.91119479 Z M6.96501089,3.85845935 L28.5673222,7.26571516 C28.5758308,7.2664278 28.5837486,7.26678412 28.5922572,7.26678412 C28.6648168,7.26678412 28.7293404,7.21535519 28.7423397,7.14302212 L29.9923972,0.177430597 C30.0005512,0.133840717 29.9879065,0.087875367 29.9591899,0.0540249154 C29.9305915,0.0193430493 29.8869849,0.000458060486 29.8423146,0.000458060486 L29.5309229,0.00188334266 L6.96501089,3.56069415 C6.8900878,3.57233396 6.8357272,3.6349276 6.8357272,3.71011123 C6.8357272,3.78375081 6.8900878,3.84646323 6.96501089,3.85845935 Z M29.4388644,12.42975 C29.3645322,12.4421025 29.3099353,12.5055275 29.3099353,12.5791671 C29.3099353,12.653163 29.3645322,12.7165881 29.4388644,12.7283466 L44.6571143,15.2965863 C44.6646775,15.2978928 44.6731861,15.2986055 44.6811038,15.2986055 C44.7267195,15.2986055 44.7694989,15.2787703 44.7988063,15.2434946 L49.770674,9.32310997 C49.8113263,9.27441283 49.8173532,9.20694948 49.7856823,9.15171979 C49.7535386,9.09755907 49.6898422,9.06644041 49.6288638,9.07808021 L29.4388644,12.42975 Z M5.12608635,13.2429923 C5.12608635,13.1693527 5.1806833,13.1059276 5.25501551,13.0946441 L28.1144748,9.48856148 C28.1643447,9.48238526 28.2140965,9.49711317 28.2477764,9.53238891 C28.2829927,9.56778341 28.2983554,9.61600546 28.2891378,9.66505892 L27.0308081,16.6756656 C27.017927,16.7487113 26.9528124,16.7993088 26.8804892,16.7993088 C26.8722169,16.7993088 26.8637083,16.7993088 26.8559087,16.7983586 L5.25501551,13.392053 C5.1806833,13.3804132 5.12608635,13.3171069 5.12608635,13.2429923 Z" id="Fill-1"></path>
                        <path d="M86.7902875,31.8701603 C86.8111663,31.8966721 86.8140396,31.9331494 86.7990988,31.9634218 C86.784158,31.9933182 86.752744,32.012685 86.7178821,32.012685 L82.0021422,32.012685 C81.9724522,32.012685 81.9441029,31.9980189 81.9274382,31.9735753 L78.2713463,26.7246043 L76.9337611,28.0131556 L76.9337611,31.9239361 C76.9337611,31.9726352 76.8935358,32.012685 76.8431585,32.012685 L73.1815117,32.012685 C73.131709,32.012685 73.0909091,31.9726352 73.0909091,31.9239361 L73.0909091,12.8637933 C73.0909091,12.8376575 73.1020189,12.813778 73.12194,12.7970436 C73.1412864,12.7801212 73.1671455,12.7726001 73.1926215,12.7752324 L76.8542683,13.2223614 C76.8996654,13.2278142 76.9337611,13.2657958 76.9337611,13.3109223 L76.9337611,23.3132244 L81.7977597,18.247956 C81.814616,18.2300934 81.8385596,18.220316 81.8632694,18.220316 L86.7178821,18.220316 C86.754851,18.220316 86.7879889,18.2413751 86.801972,18.275032 C86.8157635,18.3081248 86.80791,18.3461063 86.7818594,18.3720541 L80.8741114,24.1713811 L86.7902875,31.8701603 Z M111.779169,18.220316 L107.785185,18.220316 C107.747067,18.220316 107.713354,18.2430673 107.700137,18.2778524 L104.702973,26.1770687 L101.461201,18.275596 C101.447793,18.2419391 101.414272,18.220316 101.377112,18.220316 L98.4096376,18.220316 C98.3726686,18.220316 98.3395307,18.2419391 98.3257392,18.2761601 L95.1105926,26.1770687 L92.0868033,18.2778524 C92.0735864,18.2430673 92.0396823,18.220316 92.0021387,18.220316 L88.0073886,18.220316 C87.9767408,18.220316 87.9487746,18.2349821 87.9321099,18.2594257 C87.9154452,18.2838692 87.9116142,18.3152698 87.9232987,18.3423457 L93.5546417,31.9568409 C93.5686248,31.9904978 93.6017627,32.012685 93.6387317,32.012685 L96.4121667,32.012685 C96.4487525,32.012685 96.4818905,31.9916259 96.495682,31.9585331 L99.9071661,24.0657097 L103.291259,31.957969 C103.30505,31.9910618 103.338188,32.012685 103.374582,32.012685 L106.148209,32.012685 C106.185178,32.012685 106.218316,31.9904978 106.232107,31.9568409 L111.863067,18.3423457 C111.874752,18.3152698 111.871304,18.2838692 111.854831,18.2594257 C111.837783,18.2349821 111.809434,18.220316 111.779169,18.220316 Z M115.642517,12.1818182 C114.360289,12.1818182 113.393542,13.1415097 113.393542,14.4144547 C113.393542,15.6731097 114.360289,16.6218956 115.642517,16.6218956 C116.938727,16.6218956 117.916392,15.6731097 117.916392,14.4144547 C117.916392,13.1625688 116.917465,12.1818182 115.642517,12.1818182 Z M117.471999,18.220316 L113.810352,18.220316 C113.759975,18.220316 113.719558,18.2599898 113.719558,18.3092529 L113.719558,31.9239361 C113.719558,31.9726352 113.759975,32.012685 113.810352,32.012685 L117.471425,32.012685 C117.521802,32.012685 117.562602,31.9726352 117.562602,31.9239361 L117.562602,18.3092529 C117.562602,18.2599898 117.522185,18.220316 117.471999,18.220316 Z M133.981207,31.8701603 L128.065031,24.1713811 L133.973353,18.3720541 C133.999404,18.3461063 134.007258,18.3081248 133.992891,18.275032 C133.9791,18.2413751 133.945962,18.220316 133.908801,18.220316 L129.054572,18.220316 C129.029671,18.220316 129.005918,18.2300934 128.988679,18.247956 L124.124872,23.3132244 L124.124872,13.3075378 C124.124872,13.2625993 124.090968,13.2246178 124.045188,13.218977 L120.384116,12.7752324 C120.35749,12.772036 120.332206,12.7795571 120.312859,12.7970436 C120.293513,12.813778 120.282595,12.8382216 120.282595,12.8637933 L120.28202,31.9239361 C120.28202,31.9726352 120.32282,32.012685 120.372431,32.012685 L124.034269,32.012685 C124.084455,32.012685 124.124872,31.9726352 124.124872,31.9239361 L124.124872,28.0131556 L125.463032,26.7246043 L129.118549,31.9735753 C129.135597,31.9980189 129.163946,32.012685 129.193062,32.012685 L133.908801,32.012685 C133.943663,32.012685 133.975077,31.9938823 133.990018,31.9634218 C134.005534,31.9331494 134.002277,31.8966721 133.981207,31.8701603 Z" id="Fill-3"></path>
                    </g>
                </g>
            </g>
        </g>
    </g>
</svg>